<?xml version="1.0" encoding="utf-8"?>
<!-- Generator: Adobe Illustrator 25.2.3, SVG Export Plug-In . SVG Version: 6.00 Build 0)  -->
<svg version="1.1" id="Layer_1" xmlns="http://www.w3.org/2000/svg" xmlns:xlink="http://www.w3.org/1999/xlink" x="0px" y="0px"
	 viewBox="0 0 360 360" style="enable-background:new 0 0 360 360;" xml:space="preserve">
<style type="text/css">
	.st0{fill:url(#SVGID_1_);}
	.st1{fill:#FDB927;}
	.st2{fill:#231F20;}
	.st3{fill:#E03A3E;}
</style>
<radialGradient id="SVGID_1_" cx="179.906" cy="175.8181" r="163.9949" gradientUnits="userSpaceOnUse">
	<stop  offset="0" style="stop-color:#FFFFFF"/>
	<stop  offset="0.4328" style="stop-color:#FCFCFC"/>
	<stop  offset="0.7799" style="stop-color:#F2F2F2"/>
	<stop  offset="1" style="stop-color:#E8E7E7"/>
</radialGradient>
<circle class="st0" cx="179.9" cy="175.8" r="164"/>
<g>
	<path class="st1" d="M179,209.7c-57.6-0.1-104.4-47-104.3-104.6c0.1-57.6,47-104.4,104.6-104.3c57.6,0.1,104.4,47,104.3,104.6
		C283.5,163,236.6,209.8,179,209.7z M179.2,21C132.8,21,95,58.7,94.9,105.2c-0.1,46.4,37.7,84.3,84.1,84.3
		c46.4,0.1,84.3-37.7,84.3-84.1C263.4,58.9,225.7,21.1,179.2,21z"/>
	<g>
		<path class="st2" d="M151.7,102.4c0-3.7,0.7-7.2,2.1-10.4c1.4-3.3,3.4-6.1,5.8-8.6c2.5-2.5,5.3-4.4,8.6-5.8
			c3.3-1.4,6.7-2.1,10.4-2.1c3.7,0,7.2,0.7,10.4,2.1c3.3,1.4,6.1,3.4,8.6,5.8c2.5,2.5,4.4,5.3,5.8,8.6c1.4,3.3,2.1,6.7,2.1,10.4
			c0,3.7-0.7,7.2-2.1,10.4c-1.4,3.3-3.4,6.1-5.8,8.6c-2.5,2.5-5.3,4.4-8.6,5.8c-3.3,1.4-6.7,2.1-10.4,2.1c-3.7,0-7.2-0.7-10.4-2.1
			c-3.3-1.4-6.1-3.4-8.6-5.8c-2.5-2.5-4.4-5.3-5.8-8.6C152.3,109.6,151.7,106.1,151.7,102.4z M202.6,154.6l-0.2,135.6l-47.8-0.1
			l0.2-135.6L202.6,154.6z"/>
	</g>
</g>
<rect x="154.7" y="327.4" class="st3" width="47.4" height="32.6"/>
</svg>
