<?xml version="1.0" standalone="no"?>
<!DOCTYPE svg PUBLIC "-//W3C//DTD SVG 20010904//EN"
 "http://www.w3.org/TR/2001/REC-SVG-20010904/DTD/svg10.dtd">
<svg version="1.0" xmlns="http://www.w3.org/2000/svg"
 width="700.000000pt" height="700.000000pt" viewBox="0 0 700.000000 700.000000"
 preserveAspectRatio="xMidYMid meet">
<metadata>
Created by potrace 1.14, written by Peter Selinger 2001-2017
</metadata>
<g transform="translate(0.000000,700.000000) scale(0.100000,-0.100000)"
fill="#000000" stroke="none">
<path d="M3407 6984 c-1 -1 -40 -4 -87 -8 -47 -3 -98 -8 -115 -11 -194 -34
-214 -39 -310 -68 -250 -78 -489 -205 -690 -368 -44 -36 -140 -98 -213 -138
-680 -370 -1188 -942 -1466 -1653 -43 -110 -129 -387 -140 -453 -3 -16 -14
-75 -24 -130 -11 -55 -23 -125 -26 -155 -3 -30 -9 -84 -13 -120 -16 -134 -9
-566 12 -710 10 -73 20 -131 30 -180 2 -14 7 -38 10 -55 9 -57 64 -261 95
-355 76 -226 163 -415 305 -659 13 -22 77 -123 87 -136 66 -90 179 -238 203
-265 114 -130 199 -216 319 -323 38 -34 74 -67 80 -72 6 -6 63 -49 126 -97
403 -301 828 -485 1358 -589 l63 -12 -1 -181 c0 -100 -1 -196 0 -213 l0 -33
460 0 460 0 0 209 c0 235 -7 214 80 225 37 5 189 36 250 50 889 217 1654 823
2079 1650 109 212 227 534 266 724 23 114 45 238 51 282 3 30 8 63 10 73 10
54 18 214 17 367 0 245 -14 397 -55 605 -25 128 -24 124 -43 198 -9 34 -18 69
-20 77 -9 43 -80 244 -119 338 -64 156 -129 283 -245 477 -147 248 -456 595
-703 790 -35 27 -69 55 -75 62 -25 22 -299 201 -368 239 -38 21 -106 56 -150
77 -44 22 -132 79 -195 126 -265 200 -593 343 -885 387 -27 4 -57 8 -65 9 -70
11 -344 26 -353 19z"/>
</g>
</svg>
