<?xml version="1.0" encoding="utf-8"?>
<!-- Generator: Adobe Illustrator 25.2.3, SVG Export Plug-In . SVG Version: 6.00 Build 0)  -->
<svg version="1.1" id="Layer_1" xmlns="http://www.w3.org/2000/svg" xmlns:xlink="http://www.w3.org/1999/xlink" x="0px" y="0px"
	 viewBox="0 0 106 146" style="enable-background:new 0 0 106 146;" xml:space="preserve">
<style type="text/css">
	.st0{opacity:0.4;}
	.st1{fill:#FFFFFF;}
</style>
<g class="st0">
	<path class="st1" d="M53,0.4c-0.1,0-0.3,0-0.4,0v10.2c0.1,0,0.3,0,0.4,0c23.4,0.1,42.4,19.1,42.4,42.5c0,23.4-19.1,42.4-42.5,42.4
		c-0.1,0-0.2,0-0.3,0v10.3c0.1,0,0.1,0,0.2,0c29.1,0,52.8-23.6,52.8-52.7C105.7,24.1,82,0.4,53,0.4z"/>
	<path class="st1" d="M57.9,64.2c1.6-0.7,3.1-1.7,4.3-2.9s2.2-2.7,2.9-4.3c0.7-1.7,1.1-3.4,1.1-5.3c0-1.9-0.4-3.7-1.1-5.3
		c-0.7-1.6-1.7-3.1-2.9-4.3c-1.2-1.2-2.6-2.2-4.3-2.9c-1.7-0.7-3.4-1.1-5.3-1.1v27.2C54.5,65.3,56.3,64.9,57.9,64.2z"/>
	<polygon class="st1" points="64.6,146.4 64.7,78 52.6,78 52.6,146.4 	"/>
</g>
<g>
	<path class="st1" d="M10.5,53c0-23.3,18.9-42.2,42.1-42.4V0.4C23.7,0.6,0.3,24.1,0.2,53.1C0.1,82,23.7,105.7,52.6,105.8V95.5
		C29.3,95.3,10.5,76.3,10.5,53z"/>
	<polygon class="st1" points="40.5,146.4 52.6,146.4 52.6,78 40.6,78 	"/>
	<path class="st1" d="M43,42.1c-1.2,1.2-2.2,2.7-2.9,4.3c-0.7,1.7-1.1,3.4-1.1,5.3c0,1.9,0.4,3.6,1.1,5.3c0.7,1.6,1.7,3.1,2.9,4.3
		s2.7,2.2,4.3,2.9c1.7,0.7,3.4,1.1,5.3,1.1V38.1c-1.9,0-3.7,0.4-5.3,1.1C45.7,39.9,44.2,40.9,43,42.1z"/>
</g>
</svg>
