<?xml version="1.0" encoding="utf-8"?>
<!-- Generator: Adobe Illustrator 25.2.3, SVG Export Plug-In . SVG Version: 6.00 Build 0)  -->
<svg version="1.1" id="IDV-circle-i_Vector_Artwork"
	 xmlns="http://www.w3.org/2000/svg" xmlns:xlink="http://www.w3.org/1999/xlink" x="0px" y="0px" viewBox="0 0 165.4 181.2"
	 style="enable-background:new 0 0 165.4 181.2;" xml:space="preserve">
<style type="text/css">
	.st0{fill:url(#SVGID_1_);}
	.st1{fill:#FDB927;}
	.st2{fill:#E03A3E;}
</style>
<radialGradient id="SVGID_1_" cx="82.7122" cy="88.2695" r="82.7122" gradientUnits="userSpaceOnUse">
	<stop  offset="0" style="stop-color:#FFFFFF"/>
	<stop  offset="0.4406" style="stop-color:#FCFCFC"/>
	<stop  offset="0.7939" style="stop-color:#F2F2F2"/>
	<stop  offset="1" style="stop-color:#E8E8E8"/>
</radialGradient>
<circle class="st0" cx="82.7" cy="88.3" r="82.7"/>
<g>
	<path class="st1" d="M82.3,105.4c-29,0-52.7-23.7-52.6-52.7C29.7,23.6,53.3,0,82.4,0c29,0,52.7,23.7,52.6,52.7
		C135,81.8,111.3,105.4,82.3,105.4z M82.4,10.2c-23.4,0-42.5,19-42.5,42.4c0,23.4,19,42.5,42.4,42.5c23.4,0,42.5-19,42.5-42.4
		C124.8,29.3,105.8,10.2,82.4,10.2z"/>
	<g>
		<path d="M68.5,51.3c0-1.9,0.4-3.6,1.1-5.3c0.7-1.6,1.7-3.1,2.9-4.3c1.2-1.2,2.7-2.2,4.3-2.9c1.6-0.7,3.4-1.1,5.3-1.1
			c1.9,0,3.6,0.4,5.3,1.1c1.6,0.7,3.1,1.7,4.3,2.9c1.2,1.2,2.2,2.7,2.9,4.3c0.7,1.6,1.1,3.4,1.1,5.3c0,1.9-0.4,3.6-1.1,5.3
			c-0.7,1.6-1.7,3.1-2.9,4.3c-1.2,1.2-2.7,2.2-4.3,2.9c-1.6,0.7-3.4,1.1-5.3,1.1c-1.9,0-3.6-0.4-5.3-1.1c-1.6-0.7-3.1-1.7-4.3-2.9
			c-1.2-1.2-2.2-2.7-2.9-4.3C68.8,54.9,68.5,53.1,68.5,51.3z M94.2,77.6l-0.1,68.4l-24.1,0L70,77.5L94.2,77.6z"/>
	</g>
</g>
<rect x="70" y="164.7" class="st2" width="23.9" height="16.4"/>
</svg>
