<?xml version="1.0" encoding="utf-8"?>
<!-- Generator: Adobe Illustrator 25.2.3, SVG Export Plug-In . SVG Version: 6.00 Build 0)  -->
<svg version="1.1" id="Layer_1" xmlns="http://www.w3.org/2000/svg" xmlns:xlink="http://www.w3.org/1999/xlink" x="0px" y="0px"
	 viewBox="0 0 106 146" style="enable-background:new 0 0 106 146;" xml:space="preserve">
<style type="text/css">
	.st0{fill:#FFFFFF;}
</style>
<g>
	<path class="st0" d="M52.8,105.8c-29,0-52.7-23.7-52.6-52.7C0.3,24,23.9,0.4,53,0.4c29,0,52.7,23.7,52.6,52.7
		C105.6,82.2,81.9,105.8,52.8,105.8z M53,10.6c-23.4,0-42.5,19-42.5,42.4c0,23.4,19,42.5,42.4,42.5c23.4,0,42.5-19,42.5-42.4
		C95.4,29.7,76.4,10.7,53,10.6z"/>
	<g>
		<path class="st0" d="M39,51.7c0-1.9,0.4-3.6,1.1-5.3c0.7-1.6,1.7-3.1,2.9-4.3c1.2-1.2,2.7-2.2,4.3-2.9c1.6-0.7,3.4-1.1,5.3-1.1
			c1.9,0,3.6,0.4,5.3,1.1s3.1,1.7,4.3,2.9c1.2,1.2,2.2,2.7,2.9,4.3c0.7,1.6,1.1,3.4,1.1,5.3s-0.4,3.6-1.1,5.3
			c-0.7,1.6-1.7,3.1-2.9,4.3c-1.2,1.2-2.7,2.2-4.3,2.9c-1.6,0.7-3.4,1.1-5.3,1.1c-1.9,0-3.6-0.4-5.3-1.1c-1.6-0.7-3.1-1.7-4.3-2.9
			c-1.2-1.2-2.2-2.7-2.9-4.3C39.4,55.3,39,53.6,39,51.7z M64.7,78l-0.1,68.4l-24.1,0L40.6,78L64.7,78z"/>
	</g>
</g>
</svg>
