<svg id="Layer_1" data-name="Layer 1" xmlns="http://www.w3.org/2000/svg" viewBox="0 0 454.81 630"><defs><style>.cls-1{opacity:0.4;}.cls-2{fill:#fff;}</style></defs><g class="cls-1"><path class="cls-2" d="M601.46,0C726.17.43,828,102.7,827.57,227.4c0,107.88-75.51,198.5-176.48,221.8V403.46c75.94-22.44,132-92.78,132-176.06C783.13,126.86,701.57,44.88,601,44V0Z" transform="translate(-372.76)"/><path class="cls-2" d="M652.81,198.49a57.07,57.07,0,0,1,4.75,22.87,58.62,58.62,0,0,1-4.75,22.87,59.38,59.38,0,0,1-51.35,35.82V162.68a63.51,63.51,0,0,1,20.28,4.74,56.41,56.41,0,0,1,18.56,12.52A82.49,82.49,0,0,1,652.81,198.49Z" transform="translate(-372.76)"/><path class="cls-2" d="M651.09,334.85V403c-15.54,4.74-32.37,6.9-49.63,7.33V334.85Z" transform="translate(-372.76)"/><path class="cls-2" d="M650.65,403v45.74a232.34,232.34,0,0,1-49.19,5.61v-44A169.85,169.85,0,0,0,650.65,403Z" transform="translate(-372.76)"/><path class="cls-2" d="M650.65,449.2V630H601.46V454.81A232.34,232.34,0,0,0,650.65,449.2Z" transform="translate(-372.76)"/><path class="cls-2" d="M601.46,410.36v44.45h-1.72a212.23,212.23,0,0,1-52.65-6.47V402.16a179.42,179.42,0,0,0,53.08,7.77A1.58,1.58,0,0,0,601.46,410.36Z" transform="translate(-372.76)"/><path class="cls-2" d="M601.46,454.81V630h-54.8l.43-181.66a212.23,212.23,0,0,0,52.65,6.47Z" transform="translate(-372.76)"/><path class="cls-2" d="M601.46,334.85v75.51h-1.29a179.74,179.74,0,0,1-53.08-7.76V334.85Z" transform="translate(-372.76)"/><path class="cls-2" d="M601.46,162.68V279.62h-2.59A58.66,58.66,0,0,1,576,274.87a58.64,58.64,0,0,1-31.07-31.07,57.54,57.54,0,0,1,0-45.74A58.73,58.73,0,0,1,576,167a57.07,57.07,0,0,1,22.87-4.74A5.51,5.51,0,0,0,601.46,162.68Z" transform="translate(-372.76)"/><path class="cls-2" d="M601.46,0V44h-.86c-101,0-183.39,82-183.39,183,0,82.42,54.8,152.76,129.88,175.63v46.17C447,424.6,372.33,334.42,372.76,227.4,372.76,101.84,475,0,600.6,0Z" transform="translate(-372.76)"/></g></svg>